# xmcd
#
# Track frame offsets:
#	150
#	21667
#	38432
#	58497
#	75250
#	92750
#	109903
#	129290
#	147673
#	169188
#	185958
#	206028
#	222766
#	240201
#	257373
#	276736
#	306506
#
# Disc length: 4099 seconds
#
# Revision: 0
# Processed by: cddbd v1.5PL3 Copyright (c) Steve Scherf et al.
# Submitted via: audiograbber 1.83.01
#
DISCID=01100111
DTITLE=Various Artist - Karaoke SC1010
DYEAR=1900
DGENRE=
TTITLE0=Travis Tritt - It's A Great Day To Be Alive
TTITLE1=Steve Holy - Good Morning Beautiful
TTITLE2=Alan Jackson - Where I Come From
TTITLE3=Mark Mcguinn - Mrs Steven Rudy
TTITLE4=Diamond Rio - One More Day
TTITLE5=Tim Mcgraw - My Next Thirty Years
TTITLE6=Brooks And Dunn - Only In America
TTITLE7=Montgomery Gentry - Cold One Comin' On
TTITLE8=Travis Tritt (Vocal) - It's A Great Day To Be Alive
TTITLE9=Steve Holy (Vocal) - Good Morning Beautiful
TTITLE10=Alan Jackson (Vocal) - Where I Come From
TTITLE11=Mark Mcguinn (Vocal) - Mrs Steven Rudy
TTITLE12=Diamond Rio (Vocal) - One More Day
TTITLE13=Tim Mcgraw (Vocal) - My Next Thirty Years
TTITLE14=Brooks And Dunn (Vocal) - Only In America
TTITLE15=Montgomery Gentry (Vocal) - Cold One Comin' On
TTITLE16=DATA - Data Track
EXTD=
EXTT0=
EXTT1=
EXTT2=
EXTT3=
EXTT4=
EXTT5=
EXTT6=
EXTT7=
EXTT8=
EXTT9=
EXTT10=
EXTT11=
EXTT12=
EXTT13=
EXTT14=
EXTT15=
EXTT16=
PLAYORDER=
